<mxfile host="app.diagrams.net" agent="Mozilla/5.0 (Windows NT 10.0; Win64; x64) AppleWebKit/537.36 (KHTML, like Gecko) Chrome/135.0.0.0 Safari/537.36" version="26.2.12">
  <diagram name="Σελίδα-1" id="sguXIwF8qdAf499JRzKj">
    <mxGraphModel dx="1044" dy="570" grid="1" gridSize="10" guides="1" tooltips="1" connect="1" arrows="1" fold="1" page="1" pageScale="1" pageWidth="827" pageHeight="1169" math="0" shadow="0">
      <root>
        <mxCell id="0" />
        <mxCell id="1" parent="0" />
        <mxCell id="h-tyf8Ejy3PfrsHrT-p6-1" value="Owner" style="shape=umlActor;verticalLabelPosition=bottom;verticalAlign=top;html=1;outlineConnect=0;" vertex="1" parent="1">
          <mxGeometry x="40" y="40" width="30" height="60" as="geometry" />
        </mxCell>
        <mxCell id="h-tyf8Ejy3PfrsHrT-p6-2" value="Οθόνη &quot;Coupons&quot;" style="shape=umlBoundary;whiteSpace=wrap;html=1;" vertex="1" parent="1">
          <mxGeometry x="220" y="30" width="100" height="80" as="geometry" />
        </mxCell>
        <mxCell id="h-tyf8Ejy3PfrsHrT-p6-10" value="Εμφανίζει καταχωρημένα κουπόνια" style="ellipse;shape=umlControl;whiteSpace=wrap;html=1;" vertex="1" parent="1">
          <mxGeometry x="430" y="30" width="90" height="80" as="geometry" />
        </mxCell>
        <mxCell id="h-tyf8Ejy3PfrsHrT-p6-11" value="Ανακτά" style="ellipse;shape=umlControl;whiteSpace=wrap;html=1;" vertex="1" parent="1">
          <mxGeometry x="615" y="30" width="70" height="80" as="geometry" />
        </mxCell>
        <mxCell id="h-tyf8Ejy3PfrsHrT-p6-12" value="Data Source" style="ellipse;shape=umlEntity;whiteSpace=wrap;html=1;" vertex="1" parent="1">
          <mxGeometry x="800" y="30" width="80" height="80" as="geometry" />
        </mxCell>
        <mxCell id="h-tyf8Ejy3PfrsHrT-p6-13" value="Εμφάνιση οθόνης προσθήκης κουπονιού" style="ellipse;shape=umlControl;whiteSpace=wrap;html=1;" vertex="1" parent="1">
          <mxGeometry x="430" y="150" width="80" height="80" as="geometry" />
        </mxCell>
        <mxCell id="h-tyf8Ejy3PfrsHrT-p6-14" value="Οθόνη &quot;Add new coupon&quot;" style="shape=umlBoundary;whiteSpace=wrap;html=1;" vertex="1" parent="1">
          <mxGeometry x="220" y="140" width="100" height="80" as="geometry" />
        </mxCell>
        <mxCell id="h-tyf8Ejy3PfrsHrT-p6-15" value="Ελέγχει εγκυρότητα στοιχείων" style="ellipse;shape=umlControl;whiteSpace=wrap;html=1;" vertex="1" parent="1">
          <mxGeometry x="390" y="250" width="70" height="80" as="geometry" />
        </mxCell>
        <mxCell id="h-tyf8Ejy3PfrsHrT-p6-16" value="Επικυρώνει τα στοιχεία κουπονιού" style="ellipse;shape=umlControl;whiteSpace=wrap;html=1;" vertex="1" parent="1">
          <mxGeometry x="615" y="240" width="70" height="80" as="geometry" />
        </mxCell>
        <mxCell id="h-tyf8Ejy3PfrsHrT-p6-17" value="Δημιουργεί κουπόνι" style="ellipse;shape=umlControl;whiteSpace=wrap;html=1;" vertex="1" parent="1">
          <mxGeometry x="730" y="380" width="70" height="80" as="geometry" />
        </mxCell>
        <mxCell id="h-tyf8Ejy3PfrsHrT-p6-18" value="Νέο κουπόνι" style="ellipse;shape=umlEntity;whiteSpace=wrap;html=1;" vertex="1" parent="1">
          <mxGeometry x="800" y="240" width="80" height="80" as="geometry" />
        </mxCell>
        <mxCell id="h-tyf8Ejy3PfrsHrT-p6-19" value="Εμφάνιση οθόνης επιβεβαίωσης" style="ellipse;shape=umlControl;whiteSpace=wrap;html=1;" vertex="1" parent="1">
          <mxGeometry x="540" y="420" width="90" height="80" as="geometry" />
        </mxCell>
        <mxCell id="h-tyf8Ejy3PfrsHrT-p6-20" value="Οθόνη &quot;Confirmation&quot;" style="shape=umlBoundary;whiteSpace=wrap;html=1;" vertex="1" parent="1">
          <mxGeometry x="230" y="300" width="100" height="80" as="geometry" />
        </mxCell>
        <mxCell id="h-tyf8Ejy3PfrsHrT-p6-21" value="Επιστροφή στην οθόνη &quot;Coupons&quot;" style="ellipse;shape=umlControl;whiteSpace=wrap;html=1;" vertex="1" parent="1">
          <mxGeometry x="400" y="460" width="70" height="80" as="geometry" />
        </mxCell>
        <mxCell id="h-tyf8Ejy3PfrsHrT-p6-22" value="Διαγραφή κουπονιού" style="ellipse;shape=umlControl;whiteSpace=wrap;html=1;fillColor=#e51400;fontColor=#ffffff;strokeColor=#B20000;" vertex="1" parent="1">
          <mxGeometry x="70" y="430" width="70" height="80" as="geometry" />
        </mxCell>
        <mxCell id="h-tyf8Ejy3PfrsHrT-p6-23" value="Επιστροφή στην οθόνη &quot;Coupons&quot;" style="ellipse;shape=umlControl;whiteSpace=wrap;html=1;fillColor=#e51400;fontColor=#ffffff;strokeColor=#B20000;" vertex="1" parent="1">
          <mxGeometry x="160" y="560" width="70" height="80" as="geometry" />
        </mxCell>
        <mxCell id="h-tyf8Ejy3PfrsHrT-p6-28" value="" style="endArrow=none;html=1;rounded=0;exitX=0.5;exitY=0.5;exitDx=0;exitDy=0;exitPerimeter=0;" edge="1" parent="1" source="h-tyf8Ejy3PfrsHrT-p6-1">
          <mxGeometry width="50" height="50" relative="1" as="geometry">
            <mxPoint x="170" y="230" as="sourcePoint" />
            <mxPoint x="220" y="180" as="targetPoint" />
          </mxGeometry>
        </mxCell>
        <mxCell id="h-tyf8Ejy3PfrsHrT-p6-29" value="" style="endArrow=none;html=1;rounded=0;exitX=0;exitY=0.5;exitDx=0;exitDy=0;exitPerimeter=0;" edge="1" parent="1">
          <mxGeometry width="50" height="50" relative="1" as="geometry">
            <mxPoint x="60" y="70" as="sourcePoint" />
            <mxPoint x="230" y="340" as="targetPoint" />
          </mxGeometry>
        </mxCell>
        <mxCell id="h-tyf8Ejy3PfrsHrT-p6-37" value="" style="endArrow=none;html=1;rounded=0;exitX=0;exitY=0.5;exitDx=0;exitDy=0;exitPerimeter=0;entryX=0;entryY=0.375;entryDx=0;entryDy=0;entryPerimeter=0;" edge="1" parent="1" target="h-tyf8Ejy3PfrsHrT-p6-13">
          <mxGeometry width="50" height="50" relative="1" as="geometry">
            <mxPoint x="320" y="70" as="sourcePoint" />
            <mxPoint x="390" y="100" as="targetPoint" />
          </mxGeometry>
        </mxCell>
        <mxCell id="h-tyf8Ejy3PfrsHrT-p6-40" value="" style="endArrow=none;html=1;rounded=0;exitX=0;exitY=0.5;exitDx=0;exitDy=0;exitPerimeter=0;" edge="1" parent="1">
          <mxGeometry width="50" height="50" relative="1" as="geometry">
            <mxPoint x="320" y="185" as="sourcePoint" />
            <mxPoint x="390" y="290" as="targetPoint" />
          </mxGeometry>
        </mxCell>
        <mxCell id="h-tyf8Ejy3PfrsHrT-p6-44" value="" style="endArrow=none;html=1;rounded=0;entryX=0.511;entryY=1.02;entryDx=0;entryDy=0;entryPerimeter=0;" edge="1" parent="1" target="h-tyf8Ejy3PfrsHrT-p6-16">
          <mxGeometry width="50" height="50" relative="1" as="geometry">
            <mxPoint x="730" y="420" as="sourcePoint" />
            <mxPoint x="780" y="370" as="targetPoint" />
          </mxGeometry>
        </mxCell>
        <mxCell id="h-tyf8Ejy3PfrsHrT-p6-45" value="" style="endArrow=none;html=1;rounded=0;exitX=0.991;exitY=0.59;exitDx=0;exitDy=0;exitPerimeter=0;entryX=0;entryY=1;entryDx=0;entryDy=0;" edge="1" parent="1" source="h-tyf8Ejy3PfrsHrT-p6-16" target="h-tyf8Ejy3PfrsHrT-p6-12">
          <mxGeometry width="50" height="50" relative="1" as="geometry">
            <mxPoint x="750" y="120" as="sourcePoint" />
            <mxPoint x="800" y="70" as="targetPoint" />
          </mxGeometry>
        </mxCell>
        <mxCell id="h-tyf8Ejy3PfrsHrT-p6-46" value="" style="endArrow=none;html=1;rounded=0;entryX=0.5;entryY=1;entryDx=0;entryDy=0;" edge="1" parent="1" target="h-tyf8Ejy3PfrsHrT-p6-18">
          <mxGeometry width="50" height="50" relative="1" as="geometry">
            <mxPoint x="790" y="400" as="sourcePoint" />
            <mxPoint x="840" y="350" as="targetPoint" />
          </mxGeometry>
        </mxCell>
        <mxCell id="h-tyf8Ejy3PfrsHrT-p6-48" value="" style="endArrow=none;html=1;rounded=0;entryX=0.031;entryY=0.63;entryDx=0;entryDy=0;entryPerimeter=0;" edge="1" parent="1" target="h-tyf8Ejy3PfrsHrT-p6-16">
          <mxGeometry width="50" height="50" relative="1" as="geometry">
            <mxPoint x="460" y="300" as="sourcePoint" />
            <mxPoint x="510" y="250" as="targetPoint" />
          </mxGeometry>
        </mxCell>
        <mxCell id="h-tyf8Ejy3PfrsHrT-p6-49" value="" style="endArrow=none;html=1;rounded=0;entryX=0;entryY=0.5;entryDx=0;entryDy=0;entryPerimeter=0;" edge="1" parent="1" target="h-tyf8Ejy3PfrsHrT-p6-2">
          <mxGeometry width="50" height="50" relative="1" as="geometry">
            <mxPoint x="60" y="70" as="sourcePoint" />
            <mxPoint x="110" y="20" as="targetPoint" />
          </mxGeometry>
        </mxCell>
        <mxCell id="h-tyf8Ejy3PfrsHrT-p6-50" value="" style="endArrow=none;html=1;rounded=0;entryX=-0.034;entryY=0.487;entryDx=0;entryDy=0;entryPerimeter=0;" edge="1" parent="1" target="h-tyf8Ejy3PfrsHrT-p6-10">
          <mxGeometry width="50" height="50" relative="1" as="geometry">
            <mxPoint x="320" y="70" as="sourcePoint" />
            <mxPoint x="370" y="20" as="targetPoint" />
          </mxGeometry>
        </mxCell>
        <mxCell id="h-tyf8Ejy3PfrsHrT-p6-51" value="" style="endArrow=none;html=1;rounded=0;entryX=-0.003;entryY=0.607;entryDx=0;entryDy=0;entryPerimeter=0;exitX=0.996;exitY=0.547;exitDx=0;exitDy=0;exitPerimeter=0;" edge="1" parent="1" source="h-tyf8Ejy3PfrsHrT-p6-10" target="h-tyf8Ejy3PfrsHrT-p6-11">
          <mxGeometry width="50" height="50" relative="1" as="geometry">
            <mxPoint x="540" y="80" as="sourcePoint" />
            <mxPoint x="550" y="30" as="targetPoint" />
          </mxGeometry>
        </mxCell>
        <mxCell id="h-tyf8Ejy3PfrsHrT-p6-52" value="" style="endArrow=none;html=1;rounded=0;entryX=0;entryY=0.5;entryDx=0;entryDy=0;" edge="1" parent="1" target="h-tyf8Ejy3PfrsHrT-p6-12">
          <mxGeometry width="50" height="50" relative="1" as="geometry">
            <mxPoint x="690" y="80" as="sourcePoint" />
            <mxPoint x="740" y="30" as="targetPoint" />
          </mxGeometry>
        </mxCell>
        <mxCell id="h-tyf8Ejy3PfrsHrT-p6-53" value="" style="endArrow=none;html=1;rounded=0;entryX=-0.034;entryY=0.587;entryDx=0;entryDy=0;entryPerimeter=0;" edge="1" parent="1" target="h-tyf8Ejy3PfrsHrT-p6-13">
          <mxGeometry width="50" height="50" relative="1" as="geometry">
            <mxPoint x="320" y="180" as="sourcePoint" />
            <mxPoint x="370" y="130" as="targetPoint" />
          </mxGeometry>
        </mxCell>
        <mxCell id="h-tyf8Ejy3PfrsHrT-p6-54" value="" style="endArrow=none;html=1;rounded=0;entryX=0.057;entryY=0.742;entryDx=0;entryDy=0;entryPerimeter=0;exitX=1.018;exitY=0.632;exitDx=0;exitDy=0;exitPerimeter=0;" edge="1" parent="1" source="h-tyf8Ejy3PfrsHrT-p6-19" target="h-tyf8Ejy3PfrsHrT-p6-17">
          <mxGeometry width="50" height="50" relative="1" as="geometry">
            <mxPoint x="620" y="460" as="sourcePoint" />
            <mxPoint x="660" y="410" as="targetPoint" />
          </mxGeometry>
        </mxCell>
        <mxCell id="h-tyf8Ejy3PfrsHrT-p6-55" value="" style="endArrow=none;html=1;rounded=0;entryX=-0.017;entryY=0.582;entryDx=0;entryDy=0;entryPerimeter=0;exitX=1;exitY=0.612;exitDx=0;exitDy=0;exitPerimeter=0;" edge="1" parent="1" source="h-tyf8Ejy3PfrsHrT-p6-20" target="h-tyf8Ejy3PfrsHrT-p6-19">
          <mxGeometry width="50" height="50" relative="1" as="geometry">
            <mxPoint x="390" y="460" as="sourcePoint" />
            <mxPoint x="440" y="410" as="targetPoint" />
          </mxGeometry>
        </mxCell>
        <mxCell id="h-tyf8Ejy3PfrsHrT-p6-56" value="" style="endArrow=none;html=1;rounded=0;entryX=0.264;entryY=0.792;entryDx=0;entryDy=0;entryPerimeter=0;exitX=0.96;exitY=0.327;exitDx=0;exitDy=0;exitPerimeter=0;fillColor=#e51400;strokeColor=#B20000;curved=0;" edge="1" parent="1" source="h-tyf8Ejy3PfrsHrT-p6-22" target="h-tyf8Ejy3PfrsHrT-p6-20">
          <mxGeometry width="50" height="50" relative="1" as="geometry">
            <mxPoint x="220" y="460" as="sourcePoint" />
            <mxPoint x="270" y="410" as="targetPoint" />
          </mxGeometry>
        </mxCell>
        <mxCell id="h-tyf8Ejy3PfrsHrT-p6-76" value="Μη Επιβεβαίωση" style="edgeLabel;html=1;align=center;verticalAlign=middle;resizable=0;points=[];" vertex="1" connectable="0" parent="h-tyf8Ejy3PfrsHrT-p6-56">
          <mxGeometry x="-0.1792" y="-4" relative="1" as="geometry">
            <mxPoint as="offset" />
          </mxGeometry>
        </mxCell>
        <mxCell id="h-tyf8Ejy3PfrsHrT-p6-57" value="" style="endArrow=none;html=1;rounded=0;exitX=0.36;exitY=0.167;exitDx=0;exitDy=0;exitPerimeter=0;entryX=0.816;entryY=0.903;entryDx=0;entryDy=0;entryPerimeter=0;" edge="1" parent="1" source="h-tyf8Ejy3PfrsHrT-p6-21" target="h-tyf8Ejy3PfrsHrT-p6-20">
          <mxGeometry width="50" height="50" relative="1" as="geometry">
            <mxPoint x="270" y="420" as="sourcePoint" />
            <mxPoint x="320" y="370" as="targetPoint" />
          </mxGeometry>
        </mxCell>
        <mxCell id="h-tyf8Ejy3PfrsHrT-p6-63" value="" style="endArrow=none;html=1;rounded=0;exitX=0.223;exitY=0.232;exitDx=0;exitDy=0;exitPerimeter=0;entryX=0.491;entryY=1.057;entryDx=0;entryDy=0;entryPerimeter=0;fillColor=#e51400;strokeColor=#B20000;" edge="1" parent="1" source="h-tyf8Ejy3PfrsHrT-p6-23" target="h-tyf8Ejy3PfrsHrT-p6-22">
          <mxGeometry width="50" height="50" relative="1" as="geometry">
            <mxPoint x="130" y="540" as="sourcePoint" />
            <mxPoint x="180" y="490" as="targetPoint" />
          </mxGeometry>
        </mxCell>
        <mxCell id="h-tyf8Ejy3PfrsHrT-p6-64" value="Επιβεβαίωση Δημιουργίας" style="text;html=1;align=center;verticalAlign=middle;resizable=0;points=[];autosize=1;strokeColor=none;fillColor=none;" vertex="1" parent="1">
          <mxGeometry x="300" y="420" width="160" height="30" as="geometry" />
        </mxCell>
        <mxCell id="h-tyf8Ejy3PfrsHrT-p6-68" value="έγκυρα στοιχεία" style="text;html=1;align=center;verticalAlign=middle;resizable=0;points=[];autosize=1;strokeColor=none;fillColor=none;" vertex="1" parent="1">
          <mxGeometry x="485" y="268" width="110" height="30" as="geometry" />
        </mxCell>
        <mxCell id="h-tyf8Ejy3PfrsHrT-p6-69" value="" style="endArrow=none;html=1;rounded=0;exitX=0.675;exitY=0.983;exitDx=0;exitDy=0;exitPerimeter=0;fillColor=#e51400;strokeColor=#B20000;entryX=1;entryY=0.75;entryDx=0;entryDy=0;entryPerimeter=0;" edge="1" parent="1" source="h-tyf8Ejy3PfrsHrT-p6-18" target="h-tyf8Ejy3PfrsHrT-p6-22">
          <mxGeometry width="50" height="50" relative="1" as="geometry">
            <mxPoint x="840" y="650.800048828125" as="sourcePoint" />
            <mxPoint x="280" y="380" as="targetPoint" />
            <Array as="points">
              <mxPoint x="840" y="690" />
              <mxPoint x="400" y="690" />
            </Array>
          </mxGeometry>
        </mxCell>
        <mxCell id="h-tyf8Ejy3PfrsHrT-p6-70" value="" style="endArrow=none;html=1;rounded=0;fillColor=#e51400;strokeColor=#B20000;" edge="1" parent="1">
          <mxGeometry width="50" height="50" relative="1" as="geometry">
            <mxPoint x="460" y="280" as="sourcePoint" />
            <mxPoint x="650" y="160" as="targetPoint" />
          </mxGeometry>
        </mxCell>
        <mxCell id="h-tyf8Ejy3PfrsHrT-p6-77" value="Μη έγκυρα στοιχεία" style="edgeLabel;html=1;align=center;verticalAlign=middle;resizable=0;points=[];" vertex="1" connectable="0" parent="h-tyf8Ejy3PfrsHrT-p6-70">
          <mxGeometry x="-0.0045" relative="1" as="geometry">
            <mxPoint as="offset" />
          </mxGeometry>
        </mxCell>
        <mxCell id="h-tyf8Ejy3PfrsHrT-p6-71" value="Ενημερωτικό μήνυμα" style="shape=umlBoundary;whiteSpace=wrap;html=1;fillColor=#e51400;fontColor=#ffffff;strokeColor=#B20000;" vertex="1" parent="1">
          <mxGeometry x="920" y="150" width="100" height="80" as="geometry" />
        </mxCell>
        <mxCell id="h-tyf8Ejy3PfrsHrT-p6-74" value="Εμφάνιση ενημερωτικού μηνύματος" style="ellipse;shape=umlControl;whiteSpace=wrap;html=1;fillColor=#e51400;fontColor=#ffffff;strokeColor=#B20000;" vertex="1" parent="1">
          <mxGeometry x="650" y="115" width="80" height="80" as="geometry" />
        </mxCell>
        <mxCell id="h-tyf8Ejy3PfrsHrT-p6-75" value="" style="endArrow=none;html=1;rounded=0;entryX=0.092;entryY=0.518;entryDx=0;entryDy=0;entryPerimeter=0;fillColor=#e51400;strokeColor=#B20000;" edge="1" parent="1" target="h-tyf8Ejy3PfrsHrT-p6-71">
          <mxGeometry width="50" height="50" relative="1" as="geometry">
            <mxPoint x="730" y="160" as="sourcePoint" />
            <mxPoint x="780" y="110" as="targetPoint" />
          </mxGeometry>
        </mxCell>
      </root>
    </mxGraphModel>
  </diagram>
</mxfile>
